# xmcd
#
# Track frame offsets: 
#        150
#        16973
#        39410
#        63630
#        80525
#        99170
#        125055
#        142276
#
# Disc length: 2276 seconds
#
# Revision: 0
# Processed by: cddbd v1.5.2PL0 Copyright (c) Steve Scherf et al.
# Submitted via: ExactAudioCopy v0.99pb4
#
DISCID=6c08e208
DTITLE=Kashmere Stage Band - Bumper To Bumper Soul
DYEAR=1970
DGENRE=Funk
TTITLE0=Bumper To Bumper
TTITLE1=Sonny
TTITLE2=Shadow Of Your Smile
TTITLE3=Boss City
TTITLE4=Thank You
TTITLE5=Yesterday
TTITLE6=Take Five
TTITLE7=Are You Ready For This
EXTD=
EXTT0=
EXTT1=
EXTT2=
EXTT3=
EXTT4=
EXTT5=
EXTT6=
EXTT7=
PLAYORDER=
